<svg xmlns="http://www.w3.org/2000/svg" viewBox="0 0 270 480"><defs><linearGradient id="g" x1="0" y1="0" x2="1" y2="1"><stop stop-color="#d7d0c2"/><stop offset="1" stop-color="#6b7280"/></linearGradient><linearGradient id="t" x1="0" y1="0" x2="0" y2="1"><stop stop-color="#1f2937"/><stop offset="1" stop-color="#0f172a"/></linearGradient></defs><rect width="270" height="480" fill="url(#g)"/><path d="M0 0h270v90H0z" fill="#b6ad9f"/><path d="M0 90h270v390H0z" fill="#777" opacity=".22"/><g opacity=".8" stroke="#5b4636" stroke-width="4"><path d="M0 28h270M0 55h270M24 0l32 88M84 0l-15 88M142 0l-26 88M204 0l28 88"/></g><g transform="translate(18 126)"><rect x="12" y="36" width="198" height="176" rx="6" fill="url(#t)"/><rect x="22" y="50" width="178" height="138" fill="#202a39"/><path d="M22 50h178v22H22z" fill="#334155"/><rect x="50" y="88" width="58" height="52" fill="#b8864a"/><rect x="112" y="78" width="62" height="62" fill="#c99b60"/><rect x="84" y="144" width="86" height="40" fill="#ab7a42"/><rect x="38" y="146" width="42" height="38" fill="#d0a46f"/><rect x="128" y="110" width="38" height="12" fill="#e5d4bc" opacity=".7"/><rect x="70" y="106" width="26" height="8" fill="#e5d4bc" opacity=".7"/><rect x="0" y="205" width="230" height="22" fill="#475569"/><rect x="4" y="226" width="230" height="12" fill="#334155"/><circle cx="52" cy="248" r="18" fill="#111827"/><circle cx="174" cy="248" r="18" fill="#111827"/></g><g transform="translate(172 245)"><rect x="22" y="36" width="42" height="86" rx="4" fill="#e15b42"/><path d="M0 118h86" stroke="#7f1d1d" stroke-width="8"/><circle cx="16" cy="126" r="8" fill="#111827"/><circle cx="68" cy="126" r="8" fill="#111827"/><path d="M44 36l18-62" stroke="#111827" stroke-width="5"/><path d="M64 58h34" stroke="#111827" stroke-width="5"/></g><g transform="translate(130 188)"><circle cx="20" cy="18" r="12" fill="#211a16"/><rect x="10" y="30" width="24" height="58" rx="8" fill="#172554"/><path d="M12 48l-26 24M34 48l28-22M16 88l-18 38M32 88l20 36" stroke="#172554" stroke-width="8" stroke-linecap="round"/></g><rect x="0" y="350" width="270" height="130" fill="#555" opacity=".38"/></svg>